<?xml version="1.0" standalone="no"?>
<!DOCTYPE svg PUBLIC "-//W3C//DTD SVG 20010904//EN"
 "http://www.w3.org/TR/2001/REC-SVG-20010904/DTD/svg10.dtd">
<svg version="1.0" xmlns="http://www.w3.org/2000/svg"
 width="200.000000pt" height="200.000000pt" viewBox="0 0 200.000000 200.000000"
 preserveAspectRatio="xMidYMid meet">
<metadata>
Created by potrace 1.11, written by Peter Selinger 2001-2013
</metadata>
<g transform="translate(0.000000,200.000000) scale(0.100000,-0.100000)"
fill="#000000" stroke="none">
<path d="M845 1885 c-356 -66 -635 -329 -722 -682 -25 -103 -22 -323 6 -428
87 -325 332 -565 661 -649 82 -21 113 -24 230 -22 111 3 151 8 223 30 250 75
447 237 560 461 33 66 60 140 73 196 3 13 8 38 12 54 3 17 6 93 6 170 -1 120
-5 152 -27 225 -38 126 -55 161 -136 279 -128 186 -336 321 -566 366 -63 13
-252 13 -320 0z"/>
</g>
</svg>
